<svg xmlns="http://www.w3.org/2000/svg" style="display: none;">
<defs>
<symbol id="home" viewBox="0 0 24 24" fill="none" stroke-linecap="round" stroke-linejoin="round">
<g class="icon-core" stroke="#007ACC" stroke-width="1.5">
<path d="M4 12l8-6 8 6v8a1 1 0 0 1-1 1H5a1 1 0 0 1-1-1z"/><line x1="8" y1="22" x2="8" y2="16"/><line x1="12" y1="22" x2="12" y2="16"/><line x1="16" y1="22" x2="16" y2="16"/>
</g>
</symbol>
<symbol id="dashboard" viewBox="0 0 24 24" fill="none" stroke-linecap="round" stroke-linejoin="round">
<g class="icon-core" stroke="#007ACC" stroke-width="1.5">
<rect x="4" y="4" width="6" height="6"/><rect x="14" y="4" width="6" height="6"/><rect x="4" y="14" width="6" height="6"/><rect x="14" y="14" width="6" height="6"/>
</g>
</symbol>
<symbol id="calls" viewBox="0 0 24 24" fill="none" stroke-linecap="round" stroke-linejoin="round">
<g class="icon-core" stroke="#4EC9B0" stroke-width="1.5">
<path d="M22 16.92v3a2 2 0 0 1-2.18 2 19.79 19.79 0 0 1-8.63-3.07 19.5 19.5 0 0 1-6-6 19.79 19.79 0 0 1-3.07-8.67A2 2 0 0 1 4.11 2h3a2 2 0 0 1 2 1.72 12.84 12.84 0 0 0 .7 2.81 2 2 0 0 1-.45 2.11L8.09 9.91a16 16 0 0 0 6 6l1.27-1.27a2 2 0 0 1 2.11-.45 12.84 12.84 0 0 0 2.81.7A2 2 0 0 1 22 16.92z"/>
</g>
</symbol>
<symbol id="answered-calls" viewBox="0 0 24 24" fill="none" stroke-linecap="round" stroke-linejoin="round">
<g class="icon-core" stroke="#4EC9B0" stroke-width="1.5">
<path d="M22 16.92v3a2 2 0 0 1-2.18 2 19.79 19.79 0 0 1-8.63-3.07 19.5 19.5 0 0 1-6-6 19.79 19.79 0 0 1-3.07-8.67A2 2 0 0 1 4.11 2h3a2 2 0 0 1 2 1.72 12.84 12.84 0 0 0 .7 2.81 2 2 0 0 1-.45 2.11L8.09 9.91a16 16 0 0 0 6 6l1.27-1.27a2 2 0 0 1 2.11-.45 12.84 12.84 0 0 0 2.81.7A2 2 0 0 1 22 16.92z"/>
</g>
<g class="icon-badge" stroke="#22C55E" stroke-width="1.5">
<polyline points="17.5,4 19.5,6.5 22.5,1.5"/>
</g>
</symbol>
</defs>
</svg>